<?xml version="1.0"?>
<svg xmlns="http://www.w3.org/2000/svg" xmlns:xlink="http://www.w3.org/1999/xlink" id="Gradient" viewBox="0 0 512 512" width="512" height="512"><defs><linearGradient id="linear-gradient" x1="256" y1="496" x2="256" y2="16" gradientUnits="userSpaceOnUse"><stop offset="0" stop-color="#12c2e9"/><stop offset="0.5" stop-color="#c471ed"/><stop offset="1" stop-color="#f64f59"/></linearGradient></defs><path d="M56,496H456a8,8,0,0,0,7.964-8.759l-32-336A8,8,0,0,0,424,144H336V88a71.975,71.975,0,0,0-96-67.872A71.975,71.975,0,0,0,144,88v56H88a8,8,0,0,0-7.964,7.241l-32,336A8,8,0,0,0,56,496Zm356.16-43.185L437.571,480H391.927Zm33.65,12.568-26.643-28.5L392.8,160h23.928Zm-42.6-27.337-21.213,28.5L352.8,160h23.928ZM264,32a56.063,56.063,0,0,1,56,56v56H288V88a71.883,71.883,0,0,0-26.727-55.931C262.177,32.026,263.085,32,264,32Zm-24,5.414A56.068,56.068,0,0,1,272,88v56H208V88A56.068,56.068,0,0,1,240,37.414ZM160,88a56.063,56.063,0,0,1,56-56c.914,0,1.823.026,2.727.069A71.883,71.883,0,0,0,192,88v56H160ZM95.274,160H144v33.376a24,24,0,0,0,0,45.248V256h-8a8,8,0,0,0-7.59,5.47l-8,24A8.032,8.032,0,0,0,120,288v56a8,8,0,0,0,8,8h48a8,8,0,0,0,8-8V288a8.032,8.032,0,0,0-.41-2.53l-8-24A8,8,0,0,0,168,256h-8V238.624a24,24,0,0,0,0-45.248V160H272v33.376a24,24,0,1,0,16,0V160h48.726L367.2,480H64.8Zm66.96,112L168,289.3V336H136V289.3l5.766-17.3ZM152,224a8,8,0,1,1,8-8A8.009,8.009,0,0,1,152,224Zm136-8a8,8,0,1,1-8-8A8.009,8.009,0,0,1,288,216Z" style="fill:url(#linear-gradient)"/></svg>
