<svg id="Capa_1" enable-background="new 0 0 512 512" height="512" viewBox="0 0 512 512" width="512" xmlns="http://www.w3.org/2000/svg"><g><path d="m391 437v60c0 8.28-6.72 15-15 15h-240c-8.28 0-15-6.72-15-15v-60c1.424-.213-16.445 2.461 136-20.35z" fill="#575f64"/><path d="m391 437v60c0 8.28-6.72 15-15 15h-119v-95.35z" fill="#32393f"/><g><path d="m137 78.935c-8.284 0-15-6.716-15-15v-48.935c0-8.284 6.716-15 15-15s15 6.716 15 15v48.935c0 8.284-6.716 15-15 15z" fill="#d3d3d8"/></g><g><path d="m96.394 85.606-30-30c-5.858-5.858-5.858-15.355 0-21.213 5.857-5.858 15.355-5.858 21.213 0l30 30c5.858 5.858 5.858 15.355 0 21.213-5.857 5.858-15.356 5.859-21.213 0z" fill="#d3d3d8"/></g><g><path d="m377 80.958c-8.284 0-15-6.716-15-15v-50.958c0-8.284 6.716-15 15-15s15 6.716 15 15v50.958c0 8.284-6.716 15-15 15z" fill="#babac0"/></g><g><path d="m396.394 85.606c-5.858-5.858-5.858-15.355 0-21.213l30-30c5.857-5.858 15.355-5.858 21.213 0s5.858 15.355 0 21.213l-30 30c-5.857 5.858-15.356 5.859-21.213 0z" fill="#babac0"/></g><path d="m501.27 428.54-60 22.5c-8.17 3.08-17.28-1.47-19.69-9.92-1.35-4.72-30.55-106.91-30.58-107.02v35.68l-17.5 3.72 17.5 38.72v24.78h-117.67l-16.33-22.78-16.33 22.78h-119.67v-22.78l22.75-45.97-22.75 3.53v-37.68c-13.34 46.7-16.34 57.19-30.58 107.02-2.41 8.46-11.54 13-19.69 9.92l-60-22.5c-7.21-2.7-11.2-10.43-9.23-17.88l89.42-337.31c.86-9.28 9.12-12.48 13.21-14.06 13.23-5.16 68.48-23.69 84.27-27.91l136.59 1.4c13.44 5.22 74.24 25.31 83.02 27.35 5.94.81 10.92 5.11 12.49 11.03l90 339.5c1.97 7.45-2.02 15.18-9.23 17.88z" fill="#32393f"/><path d="m501.27 428.54-60 22.5c-8.17 3.08-17.28-1.47-19.69-9.92-1.35-4.72-30.55-106.91-30.58-107.02v35.68l-17.5 3.72 17.5 38.72v24.78h-117.67l-16.33-22.78v-414.22h29c3.98 0 7.79 1.58 10.61 4.39l28.38 28.39c13.44 5.22 74.24 25.31 83.02 27.35 5.94.81 10.92 5.11 12.49 11.03l90 339.5c1.97 7.45-2.02 15.18-9.23 17.88z" fill="#292929"/><path d="m377.81 145.4-100.52 104.57c-8.5 70.71-3.28 139.93-4.96 187.03h-32.66c-1.68-47.1-5.46-116.32-13.96-187.03l-100.52-104.57c-4.88-5.08-5.58-12.86-1.67-18.72l60-90c.75-1.06 1.05-1.43 1.98-2.39l29.89-29.9c2.82-2.81 6.63-4.39 10.61-4.39h60c3.98 0 7.79 1.58 10.61 4.39 17.64 17.65 20.82 29.92 20.92 29.92.99 1.03 1.32 1.47 1.95 2.37l60 90c3.91 5.86 3.21 13.64-1.67 18.72z" fill="#575f64"/><path d="m386.81 145.4-100.52 104.57c-8.5 70.71-12.28 139.93-13.96 187.03h-15.33v-437h29c3.98 0 7.79 1.58 10.61 4.39 17.64 17.65 29.82 29.92 29.92 29.92.99 1.03 1.32 1.47 1.95 2.37l60 90c3.91 5.86 3.21 13.64-1.67 18.72z" fill="#32393f"/><path d="m299.5 48.72c-22.52 61.58-34.83 136.05-42.5 201.13-7.66-64.96-20.08-139.76-42.5-201.14l18.71-18.71h47.58z" fill="#32393f"/><path d="m299.5 48.72c-22.52 61.58-34.83 136.05-42.5 201.13v-219.85h23.79z" fill="#292929"/><g><path d="m207.61 327.61-86.61 86.61v-42.44l65.39-65.39c5.86-5.85 15.36-5.85 21.22 0 5.85 5.86 5.85 15.36 0 21.22z" fill="#575f64"/></g><g><path d="m327.61 306.39 63.39 63.39v42.44l-84.61-84.61c-5.85-5.86-5.85-15.36 0-21.22 5.86-5.85 15.36-5.85 21.22 0z" fill="#32393f"/></g></g></svg>